# xmcd
#
# Track frame offsets:
#	150
#	13538
#	31050
#	48768
#	62957
#	74550
#	89940
#	106443
#	121235
#	132979
#	147515
#	167278
#	183432
#	201863
#	216734
#	232970
#	246793
#
# Disc length: 3512 seconds
#
# Revision: 2
# Processed by: cddbd v1.5.1PL2 Copyright (c) Steve Scherf et al.
# Submitted via: audiograbber 1.83.01
#
DISCID=fd0db611
DTITLE=Div.Kunstere - Linedance 2006
DYEAR=2006
DGENRE=Country
TTITLE0=K. T. Tunstall - Black Horse and The Cherry Tree(Black Horse)
TTITLE1=Toby Keith - As Good As I Once Was (Said Daaaave)
TTITLE2=Soluna - Monday Mi Amor
TTITLE3=Shania Twain - No One Needs To Know(Never The Twain)(Start Easy)
TTITLE4=Patrizio Buanne - Home to Mamma(Momma Mia)
TTITLE5=Miranda Lambert - I Can't Be Bothered(I Can't Be Bothered)
TTITLE6=Mary Duff - Brautiful Meath(An Irish Waltz)
TTITLE7=Kevin Fowler - Lost My Heart In Oklahoma(Lost My Heart)
TTITLE8=Heather Myles - Kiss An Angel Good Oklahoma(Angels Kiss)
TTITLE9=Chely Wright - C'est La Vie(Just Wright)
TTITLE10=Charlie Landsborough - Heaven Knows(Heaven Knows)
TTITLE11=Brad Paisley  - You Need A Man Around Here(Kill The spinderAround Here
TTITLE11=)
TTITLE12=Brad Paisley - The World (The World)
TTITLE13=Dean Brothers - Cadillac Baby(Cadillac Baby)
TTITLE14=Kenny Rogers - Someone Must Feel Like A Fool Tonight(Feel Like A Fool)
TTITLE15=Tracy Byrd - Ten Rounds With Jose Cuervo
TTITLE16=Dean Brothers - Memories Are Made Of This(Just A Memory)
EXTD=
EXTT0=
EXTT1=
EXTT2=
EXTT3=
EXTT4=
EXTT5=
EXTT6=
EXTT7=
EXTT8=
EXTT9=
EXTT10=
EXTT11=
EXTT12=
EXTT13=
EXTT14=
EXTT15=
EXTT16=
PLAYORDER=
